<svg width="103" height="15" viewBox="0 0 103 15" fill="none" xmlns="http://www.w3.org/2000/svg">
<path d="M9.4834 14L8.55176 10.9414H3.86719L2.93555 14H0L4.53516 1.09766H7.86621L12.4189 14H9.4834ZM7.90137 8.65625C7.04004 5.88477 6.55371 4.31738 6.44238 3.9541C6.33691 3.59082 6.26074 3.30371 6.21387 3.09277C6.02051 3.84277 5.4668 5.69727 4.55273 8.65625H7.90137ZM15.8449 1.15039H19.8439C21.6662 1.15039 22.9875 1.41113 23.8078 1.93262C24.634 2.44824 25.0471 3.27148 25.0471 4.40234C25.0471 5.16992 24.8654 5.7998 24.5021 6.29199C24.1447 6.78418 23.6672 7.08008 23.0695 7.17969V7.26758C23.884 7.44922 24.4699 7.78906 24.8273 8.28711C25.1906 8.78516 25.3723 9.44727 25.3723 10.2734C25.3723 11.4453 24.9475 12.3594 24.0979 13.0156C23.2541 13.6719 22.1057 14 20.6525 14H15.8449V1.15039ZM18.5695 6.23926H20.1516C20.8898 6.23926 21.423 6.125 21.7512 5.89648C22.0852 5.66797 22.2521 5.29004 22.2521 4.7627C22.2521 4.27051 22.0705 3.91895 21.7072 3.70801C21.3498 3.49121 20.7814 3.38281 20.0021 3.38281H18.5695V6.23926ZM18.5695 8.40137V11.75H20.3449C21.0949 11.75 21.6486 11.6064 22.0061 11.3193C22.3635 11.0322 22.5422 10.5928 22.5422 10.001C22.5422 8.93457 21.7805 8.40137 20.257 8.40137H18.5695ZM41.4018 7.55762C41.4018 9.68457 40.8744 11.3193 39.8197 12.4619C38.765 13.6045 37.2533 14.1758 35.2846 14.1758C33.3158 14.1758 31.8041 13.6045 30.7494 12.4619C29.6947 11.3193 29.1674 9.67871 29.1674 7.54004C29.1674 5.40137 29.6947 3.76953 30.7494 2.64453C31.81 1.51367 33.3275 0.948242 35.3021 0.948242C37.2768 0.948242 38.7855 1.5166 39.8285 2.65332C40.8773 3.79004 41.4018 5.4248 41.4018 7.55762ZM32.0238 7.55762C32.0238 8.99316 32.2963 10.0742 32.8412 10.8008C33.3861 11.5273 34.2006 11.8906 35.2846 11.8906C37.4584 11.8906 38.5453 10.4463 38.5453 7.55762C38.5453 4.66309 37.4643 3.21582 35.3021 3.21582C34.2182 3.21582 33.4008 3.58203 32.85 4.31445C32.2992 5.04102 32.0238 6.12207 32.0238 7.55762ZM56.3238 1.15039V9.46484C56.3238 10.4141 56.11 11.2461 55.6822 11.9609C55.2604 12.6758 54.648 13.2236 53.8453 13.6045C53.0426 13.9854 52.0934 14.1758 50.9977 14.1758C49.3453 14.1758 48.0621 13.7539 47.148 12.9102C46.234 12.0605 45.777 10.9004 45.777 9.42969V1.15039H48.4928V9.0166C48.4928 10.0068 48.692 10.7334 49.0904 11.1963C49.4889 11.6592 50.148 11.8906 51.068 11.8906C51.9586 11.8906 52.6031 11.6592 53.0016 11.1963C53.4059 10.7275 53.608 9.99512 53.608 8.99902V1.15039H56.3238ZM66.2273 14H63.5027V3.41797H60.0135V1.15039H69.7166V3.41797H66.2273V14ZM90.4289 1.15039V9.46484C90.4289 10.4141 90.215 11.2461 89.7873 11.9609C89.3654 12.6758 88.7531 13.2236 87.9504 13.6045C87.1477 13.9854 86.1984 14.1758 85.1027 14.1758C83.4504 14.1758 82.1672 13.7539 81.2531 12.9102C80.3391 12.0605 79.882 10.9004 79.882 9.42969V1.15039H82.5979V9.0166C82.5979 10.0068 82.7971 10.7334 83.1955 11.1963C83.5939 11.6592 84.2531 11.8906 85.173 11.8906C86.0637 11.8906 86.7082 11.6592 87.1066 11.1963C87.5109 10.7275 87.7131 9.99512 87.7131 8.99902V1.15039H90.4289ZM102.96 10.4316C102.96 11.5918 102.541 12.5059 101.704 13.1738C100.871 13.8418 99.7113 14.1758 98.223 14.1758C96.852 14.1758 95.6391 13.918 94.5844 13.4023V10.8711C95.4516 11.2578 96.184 11.5303 96.7816 11.6885C97.3852 11.8467 97.9359 11.9258 98.434 11.9258C99.0316 11.9258 99.4887 11.8115 99.8051 11.583C100.127 11.3545 100.288 11.0146 100.288 10.5635C100.288 10.3115 100.218 10.0889 100.078 9.89551C99.9369 9.69629 99.7289 9.50586 99.4535 9.32422C99.184 9.14258 98.6303 8.85254 97.7924 8.4541C97.0072 8.08496 96.4184 7.73047 96.0258 7.39062C95.6332 7.05078 95.3197 6.65527 95.0854 6.2041C94.851 5.75293 94.7338 5.22559 94.7338 4.62207C94.7338 3.48535 95.1176 2.5918 95.8852 1.94141C96.6586 1.29102 97.725 0.96582 99.0844 0.96582C99.7523 0.96582 100.388 1.04492 100.992 1.20312C101.601 1.36133 102.237 1.58398 102.899 1.87109L102.02 3.98926C101.334 3.70801 100.766 3.51172 100.315 3.40039C99.8695 3.28906 99.4301 3.2334 98.9965 3.2334C98.4809 3.2334 98.0854 3.35352 97.81 3.59375C97.5346 3.83398 97.3969 4.14746 97.3969 4.53418C97.3969 4.77441 97.4525 4.98535 97.5639 5.16699C97.6752 5.34277 97.851 5.51562 98.0912 5.68555C98.3373 5.84961 98.9145 6.14844 99.8227 6.58203C101.024 7.15625 101.847 7.7334 102.292 8.31348C102.738 8.8877 102.96 9.59375 102.96 10.4316Z" fill="black"/>
</svg>
