<svg width="14" height="15" viewBox="0 0 14 15" fill="none" xmlns="http://www.w3.org/2000/svg">
<path d="M6.84227 14.1553C8.19131 14.1553 9.51008 13.7447 10.6318 12.9755C11.7535 12.2063 12.6277 11.113 13.144 9.83385C13.6602 8.5547 13.7953 7.14714 13.5321 5.7892C13.2689 4.43126 12.6193 3.18392 11.6654 2.2049C10.7115 1.22588 9.49607 0.559142 8.17295 0.289031C6.84982 0.0189193 5.47841 0.157525 4.23206 0.687367C2.9857 1.21721 1.92038 2.11447 1.17089 3.26568C0.421404 4.41688 0.0213859 5.77035 0.0213859 7.15489C0.0190239 8.07488 0.193824 8.98629 0.535769 9.83671C0.877714 10.6871 1.38005 11.4598 2.0139 12.1103C2.64775 12.7609 3.4006 13.2764 4.22922 13.6274C5.05783 13.9783 5.94588 14.1577 6.84227 14.1553Z" fill="#FFCE35"/>
</svg>
