<svg width="827" height="828" viewBox="0 0 827 828" fill="none" xmlns="http://www.w3.org/2000/svg">
<path d="M451.538 0C402.127 0 353.199 9.73053 307.549 28.636C261.898 47.5415 220.42 75.2517 185.48 110.185C114.917 180.734 75.2755 276.421 75.2755 376.193C75.3043 394.347 76.5777 412.478 79.0869 430.458C119.914 395.421 171.946 376.169 225.75 376.193C225.75 331.545 238.992 287.899 263.802 250.775C288.612 213.652 323.875 184.717 365.133 167.631C406.39 150.545 451.789 146.074 495.587 154.785C539.386 163.495 579.618 184.995 611.195 216.567C642.772 248.138 664.276 288.362 672.988 332.152C681.7 375.943 677.229 421.333 660.139 462.583C643.05 503.833 614.11 539.089 576.979 563.895C539.849 588.7 496.195 601.94 451.538 601.94C451.562 655.734 432.307 707.757 397.264 748.576C448.372 755.904 500.442 752.637 550.232 738.979C600.023 725.32 646.47 701.562 686.682 669.183C726.893 636.805 760.01 596.498 783.97 550.771C807.93 505.045 822.222 454.878 825.955 403.391C829.688 351.905 822.782 300.202 805.668 251.498C788.555 202.795 761.599 158.134 726.478 120.296C691.357 82.4572 648.823 52.2502 601.523 31.5548C554.223 10.8593 503.169 0.118229 451.538 0" fill="#F7F7F7"/>
<path d="M79.2255 430.461C55.5371 450.659 36.2855 475.539 22.6816 503.537C9.07773 531.534 1.416 562.044 0.178373 593.146C-1.05925 624.248 4.15401 655.27 15.4902 684.259C26.8264 713.249 44.0403 739.58 66.0489 761.595C88.0576 783.61 114.385 800.833 143.375 812.181C172.364 823.53 203.389 828.757 234.497 827.534C265.606 826.312 296.125 818.666 324.134 805.078C352.143 791.49 377.037 772.254 397.25 748.58C317.04 736.879 242.754 699.593 185.451 642.273C128.147 584.952 90.8899 510.662 79.2255 430.461Z" fill="#F2F2F2"/>
<path d="M225.75 376.196C171.951 376.199 119.928 395.447 79.0872 430.461C90.8064 510.664 128.101 584.945 185.426 642.26C242.751 699.574 317.046 736.862 397.264 748.579C432.307 707.759 451.563 655.737 451.538 601.943C391.656 601.943 334.226 578.159 291.882 535.823C249.539 493.487 225.75 436.068 225.75 376.196Z" fill="#E4E4E4"/>
<path d="M451.524 601.943V376.196H225.736C225.736 436.068 249.524 493.487 291.868 535.823C334.211 578.159 391.641 601.943 451.524 601.943Z" fill="#F2F2F2"/>
</svg>
